<svg xmlns="http://www.w3.org/2000/svg" width="117" height="107" fill="none" viewBox="0 0 117 107">
    <path fill="#ED1941" d="M57.943 42.665L22.75 7.472c-.337-.337-.745-.596-1.194-.756L5.4.936C2.194-.21-.903 2.887.244 6.094l5.779 16.155c.16.45.419.858.756 1.195l35.193 35.193 2.282-2.282L9.06 21.163 3.282 5.006c-.23-.641.39-1.26 1.031-1.031L20.47 9.754 55.66 44.946l2.282-2.281z"/>
    <path fill="#ED1941" fill-rule="evenodd" d="M70.544 59.829l2.281-2.282 8.679 8.679c.08.081.158.165.232.251l.278-.356c1.976-2.52 5.712-2.746 7.977-.481 1.91 1.909 2.093 4.943.427 7.068l-4.114 5.25c.102.08.2.167.295.261l11.752 11.753c1.238-.731 2.858-.565 3.921.498l2.524 2.523c.895.895 1.184 2.23.739 3.415l-2.178 5.808c-.326.872-1.015 1.561-1.887 1.888l-5.808 2.178c-1.185.444-2.52.155-3.415-.739l-2.523-2.524c-1.063-1.064-1.23-2.684-.499-3.922L77.444 87.316c-.084-.085-.163-.173-.236-.263l-5.245 4.11c-2.125 1.667-5.16 1.484-7.069-.426-2.265-2.265-2.039-6 .482-7.976l.42-.33c-.1-.082-.197-.169-.29-.262l-8.651-8.65 2.282-2.282 8.65 8.65c.281.281.725.316 1.046.082l1.49-1.085 3.156-2.475-9.757-9.758 2.281-2.281 9.746 9.746 3.35-4.273.211-.298c.228-.32.192-.76-.087-1.038l-8.678-8.678zM67.366 85.3l4.901-3.842 4.716-3.435c.351-.257.659-.568.91-.922l3.79-5.327 2.871-3.662c.782-.997 2.26-1.087 3.156-.19.755.755.827 1.955.168 2.796l-7.506 9.577-.055.07c-.145.158-.3.305-.468.439l-2.14 1.71c-.12.096-.231.2-.334.307l-7.404 5.803c-.84.66-2.04.587-2.796-.168-.896-.896-.807-2.374.19-3.156zm28.632 6.881L93.716 89.9l-4.563 4.562 2.282 2.282 4.563-4.563zm6.516 3.094l-2.524-2.524-7.985 7.986 2.523 2.524 5.808-2.178 2.178-5.808zm-20.206-7.657L79.75 85.06l1.789-1.402c.45-.353.86-.751 1.225-1.19.1-.113.196-.228.288-.347l1.266-1.62 2.554 2.553-4.564 4.564zM84.59 89.9l2.282 2.281 4.563-4.563-2.282-2.281L84.59 89.9z" clip-rule="evenodd"/>
    <path fill="#ED1941" d="M19.644 18.109c.63.63.63 1.651 0 2.282-.63.63-1.651.63-2.281 0-.63-.63-.63-1.652 0-2.282.63-.63 1.651-.63 2.281 0zM96.366 19.644c.63.63 1.652.63 2.282 0 .63-.63.63-1.651 0-2.281-.63-.63-1.652-.63-2.282 0-.63.63-.63 1.651 0 2.281z"/>
    <path fill="#ED1941" fill-rule="evenodd" d="M34.325 65.794c.082-.1.17-.196.263-.289L93.314 6.779c.337-.337.745-.596 1.195-.756l16.155-5.78c3.206-1.146 6.303 1.95 5.156 5.157l-5.778 16.156c-.162.449-.42.857-.757 1.194L50.531 81.504c-.081.081-.165.158-.251.231l.356.28c2.52 1.975 2.746 5.712.481 7.976-1.909 1.91-4.943 2.092-7.068.427l-5.25-4.114c-.08.102-.167.201-.261.296L26.786 98.352c.73 1.237.564 2.857-.499 3.92l-2.523 2.524c-.895.895-2.23 1.184-3.415.74l-5.808-2.178c-.872-.327-1.56-1.015-1.888-1.888l-2.178-5.808c-.444-1.184-.155-2.52.74-3.415l2.523-2.523c1.064-1.063 2.684-1.23 3.921-.499l11.782-11.782c.085-.084.172-.163.263-.236l-4.111-5.245c-1.666-2.125-1.483-5.16.427-7.068 2.265-2.265 6-2.04 7.976.481l.329.42zm72.678-45.325L48.25 79.222c-.279.279-.718.316-1.038.087l-.297-.21-4.274-3.35 46.93-46.93c.63-.63.63-1.651 0-2.281-.63-.63-1.652-.63-2.282 0l-46.941 46.94-2.475-3.157-1.085-1.489c-.234-.321-.2-.764.082-1.045L95.595 9.06l16.156-5.779c.641-.23 1.261.39 1.031 1.031l-5.779 16.156zM35.298 72.267l-3.841-4.901c-.782-.998-2.26-1.087-3.156-.19-.755.755-.828 1.955-.169 2.796l5.803 7.403c.109.103.212.214.308.335l1.71 2.14c.134.166.281.323.44.467l.07.055 9.576 7.506c.841.66 2.041.587 2.797-.168.896-.896.806-2.374-.191-3.156l-3.661-2.87-5.328-3.79c-.354-.252-.666-.56-.922-.911l-3.436-4.716zM16.59 92.576l-.006-.007-.564-.564-2.524 2.524 2.178 5.807 5.808 2.178 2.524-2.523-.565-.564-.006-.006-6.845-6.846zm10.268 1.14l-2.282 2.282-4.563-4.563 2.281-2.281 4.564 4.563zm4.84-13.966l-2.559 2.558 4.563 4.563 2.554-2.553-1.62-1.265c-.119-.093-.234-.189-.346-.288-.44-.366-.838-.776-1.19-1.226l-1.403-1.789zm-7.122 7.121l2.281-2.28 4.564 4.563-2.282 2.28-4.563-4.563z" clip-rule="evenodd"/>
    <path fill="#ED1941" d="M51.12 49.488l-22.3-22.301c-.63-.63-1.652-.63-2.282 0-.63.63-.63 1.651 0 2.281L48.839 51.77l2.282-2.281z"/>
</svg>
