<svg xmlns="http://www.w3.org/2000/svg" width="44" height="44" fill="none" viewBox="0 0 44 44">
    <g clip-path="url(#prefix__clip0)">
        <path fill="#fff" d="M37 22c0-8.284-6.716-15-15-15-8.284 0-15 6.716-15 15 0 7.487 5.485 13.693 12.656 14.818V26.336h-3.809V22h3.809v-3.305c0-3.76 2.24-5.836 5.666-5.836 1.64 0 3.357.293 3.357.293v3.692h-1.891c-1.863 0-2.445 1.156-2.445 2.343V22h4.16l-.664 4.336h-3.495v10.482C31.514 35.693 37 29.487 37 22z"/>
        <path fill="#000" d="M27.839 26.336L28.504 22h-4.16v-2.813c0-1.186.58-2.343 2.444-2.343h1.891v-3.692s-1.716-.293-3.357-.293c-3.427 0-5.666 2.077-5.666 5.836V22h-3.809v4.336h3.809v10.482c1.553.243 3.135.243 4.688 0V26.336h3.495z"/>
    </g>
    <defs>
        <clipPath id="prefix__clip0">
            <path fill="#fff" d="M7 7H37V37H7z"/>
        </clipPath>
    </defs>
</svg>
