<svg xmlns="http://www.w3.org/2000/svg" width="44" height="44" fill="none" viewBox="0 0 44 44">
    <g fill="#fff" clip-path="url(#prefix__clip0)">
        <path d="M22 9.702c4.005 0 4.48.016 6.061.088 1.463.066 2.257.31 2.786.516.652.24 1.242.624 1.727 1.122.498.485.882 1.075 1.122 1.727.205.529.45 1.323.516 2.786.072 1.582.088 2.056.088 6.061s-.016 4.48-.088 6.061c-.067 1.463-.31 2.257-.516 2.786-.25.647-.632 1.234-1.122 1.724-.49.49-1.078.873-1.725 1.123-.529.205-1.323.45-2.785.516-1.582.072-2.056.087-6.062.087-4.005 0-4.48-.015-6.061-.087-1.462-.067-2.257-.311-2.786-.517-.652-.24-1.242-.623-1.726-1.122-.499-.484-.882-1.074-1.123-1.727-.205-.528-.45-1.323-.516-2.785-.072-1.582-.087-2.056-.087-6.061 0-4.006.015-4.48.087-6.062.067-1.462.311-2.257.516-2.785.24-.653.624-1.243 1.123-1.727.484-.499 1.074-.882 1.726-1.122.53-.206 1.324-.45 2.786-.517 1.582-.072 2.056-.087 6.061-.087L22 9.702zm.002-2.705c-4.073 0-4.584.017-6.184.09-1.6.074-2.69.33-3.643.7-1 .377-1.908.967-2.658 1.73-.763.75-1.353 1.657-1.73 2.658-.37.953-.624 2.045-.697 3.641C7.018 17.412 7 17.926 7 22c0 4.073.017 4.584.09 6.184.074 1.6.327 2.687.697 3.64.377 1 .968 1.907 1.73 2.657.75.763 1.657 1.354 2.659 1.73.952.372 2.044.625 3.64.698 1.597.073 2.111.09 6.185.09s4.585-.017 6.185-.09c1.6-.073 2.686-.326 3.639-.697.996-.385 1.902-.975 2.657-1.73.756-.756 1.345-1.661 1.73-2.658.371-.953.625-2.045.697-3.64.073-1.597.091-2.112.091-6.186s-.017-4.584-.09-6.184c-.074-1.6-.327-2.686-.698-3.639-.376-1-.967-1.907-1.73-2.657-.75-.763-1.656-1.354-2.657-1.731-.953-.37-2.045-.624-3.642-.697C26.587 7.017 26.073 7 22 7l.002-.003z"/>
        <path d="M22 14.298c-1.523 0-3.012.451-4.28 1.298-1.266.846-2.253 2.049-2.836 3.456-.583 1.408-.736 2.957-.438 4.45.297 1.495 1.03 2.867 2.108 3.945 1.077 1.077 2.45 1.81 3.943 2.108 1.494.297 3.043.144 4.45-.439 1.408-.583 2.611-1.57 3.457-2.837.847-1.266 1.299-2.756 1.299-4.279 0-1.012-.2-2.013-.587-2.948-.387-.934-.954-1.783-1.67-2.499-.715-.715-1.564-1.282-2.498-1.67-.935-.386-1.936-.585-2.948-.585zm0 12.704c-.99 0-1.956-.294-2.779-.843-.822-.55-1.463-1.331-1.842-2.245-.378-.914-.477-1.92-.284-2.89.193-.97.669-1.861 1.368-2.56.7-.7 1.591-1.176 2.561-1.37.97-.192 1.976-.093 2.89.285.914.379 1.695 1.02 2.245 1.842.55.823.843 1.79.843 2.78 0 1.326-.527 2.598-1.465 3.536-.938.938-2.21 1.465-3.537 1.465zM30.007 15.793c.994 0 1.8-.806 1.8-1.8s-.806-1.8-1.8-1.8-1.8.806-1.8 1.8.806 1.8 1.8 1.8z"/>
    </g>
    <defs>
        <clipPath id="prefix__clip0">
            <path fill="#fff" d="M7 7H37V37H7z"/>
        </clipPath>
    </defs>
</svg>
