<svg xmlns="http://www.w3.org/2000/svg" width="250" height="121" fill="none" viewBox="0 0 250 121">
    <path fill="#ED1941" d="M142.571 53.808h7.411l-7.502 5.6 7.274 23.08-6.273-4.553-6.411-20.12 5.501-4.007zM137.571 65.507l2.273 7.056-7.638-5.417-19.685 14.067 2.409-7.375 17.094-12.336 5.547 4.005zM124.795 63.96l-5.955 4.416 2.682-8.969-19.503-14.248 7.728-.046 17.049 12.383-2.001 6.464zM122.068 51.668l-5.91-4.415 9.32-.046 7.865-22.898 2.318 7.42-6.774 19.985-6.819-.046zM133.161 45.431l2.227-7.055 3.092 8.83 24.141.092-6.229 4.552-21.095.046-2.136-6.465z"/>
    <path fill="#fff" d="M39.598 57.678c-.773-.956-2-1.457-3.591-1.457h-6.092c-.364 0-.5.137-.546.5L26.596 72.61c-.046.136-.046.318.045.41.091.136.273.136.41.136h.5c.318 0 .5-.137.545-.501l1-5.918h5.183c3.273 0 5.501-1.866 6.092-5.053.364-1.639.045-3.005-.773-4.006zm-5.228 7.648h-5.001l1.318-7.648h5.092c1.137 0 2.046.319 2.592 1.001.545.638.727 1.64.5 2.823-.364 2.413-2.092 3.824-4.501 3.824zM51.01 71.88c-.092-.136-.273-.136-.41-.136H42.6l2.591-14.932c0-.136 0-.273-.09-.41-.092-.136-.274-.136-.364-.136h-.5c-.364 0-.5.137-.546.5l-2.773 15.888c-.046.137-.046.319.045.41.091.137.273.137.41.137h9.046c.319 0 .5-.137.546-.501l.045-.41c.091-.09.091-.273 0-.41zM63.284 56.585c-.09-.319-.227-.456-.545-.456h-.455c-.273 0-.5.137-.636.41L52.6 72.61c-.136.182-.136.364-.09.455.045.137.227.182.409.182h.409c.364 0 .591-.045.773-.364l2.819-5.008h7.274l1.09 4.917c.046.455.455.455.683.455h.409c.182 0 .318-.045.364-.136.09-.092.136-.228.09-.41l-3.546-16.115zm.637 9.878h-6.274l4.5-7.92s0-.046.046-.046l1.728 7.966zM81.242 56.402c-.046-.09-.136-.182-.364-.182h-.59c-.365 0-.546.046-.728.319l-6.638 8.103-3.773-8.012c-.182-.364-.41-.364-.728-.364h-.545c-.228 0-.364.09-.41.182-.09.136-.09.273 0 .455l4.502 9.332-1.092 6.419c-.045.137-.045.319.046.41.09.136.273.136.409.136h.5c.318 0 .5-.136.546-.5l1.09-6.42 7.775-9.377.045-.045c.046-.228 0-.365-.045-.456zM93.926 56.403c-.09-.137-.273-.137-.363-.137h-9.32c-.364 0-.5.137-.546.5l-2.773 15.888c-.046.137-.046.319.045.41.091.137.273.137.41.137h9.638c.318 0 .5-.137.545-.501l.046-.41c.045-.136.045-.273-.046-.41-.09-.136-.273-.136-.409-.136h-8.592l1.09-6.419h7.366c.318 0 .5-.136.545-.5l.091-.41c0-.046.046-.273-.045-.41-.091-.137-.273-.137-.41-.137h-7.273l1.045-6.19h8.365c.319 0 .5-.137.546-.456l.09-.41c.046-.136.092-.273-.045-.41zM107.292 57.54c-.727-.865-1.864-1.32-3.319-1.32h-6.546c-.364 0-.5.137-.546.501l-2.773 15.888c-.046.136-.046.318.045.41.091.136.273.136.41.136h.5c.318 0 .5-.137.545-.501l1.182-6.783h3.637c1.864 0 2.41.683 2.864 2.049l1.546 4.78c.137.364.409.41.728.41h.454c.228 0 .364-.092.409-.183.091-.136.091-.273.046-.41l-1.682-5.19c-.273-.773-.637-1.32-1.091-1.683 2.364-.41 3.909-2.05 4.319-4.507.272-1.412 0-2.686-.728-3.597zm-4.819 6.965h-5.41l1.182-6.782h5.501c1.091 0 1.864.273 2.364.864.5.592.637 1.412.455 2.504-.455 2.14-1.91 3.414-4.092 3.414zM167.94 59.635c-.819-2.55-2.501-3.733-5.365-3.733-3.773 0-6.137 1.593-6.637 4.507-.228 1.229-.046 2.276.545 3.05 1 1.365 2.955 1.775 4.774 2.003 1.682.227 3.091.455 3.728 1.32.318.455.454 1.047.318 1.866-.409 2.322-2.182 3.46-5.365 3.46-2.455 0-3.773-.956-4.364-3.278-.046-.136-.091-.273-.227-.364-.137-.09-.273-.045-.41 0l-.5.182c-.318.137-.454.319-.363.683.636 2.914 2.5 4.234 5.728 4.234 4.137 0 6.365-1.548 6.91-4.69.228-1.274.046-2.32-.545-3.05-.955-1.274-2.819-1.638-4.547-1.866-1.636-.182-3.227-.455-3.955-1.41-.364-.502-.455-1.093-.318-1.913.318-2.048 2.091-3.186 5.001-3.186 2.273 0 3.5.865 4.137 2.822.136.455.455.364.682.273l.364-.182c.454-.227.454-.5.409-.728zM181.806 56.357c-.091-.136-.273-.136-.364-.136h-10.956c-.319 0-.5.182-.546.5l-.091.456c0 .136 0 .273.091.41.091.136.273.136.409.136h4.683l-2.592 14.931c-.045.137-.045.32.046.41.091.137.273.137.409.137h.5c.318 0 .5-.137.546-.501l2.591-15.023h4.774c.318 0 .5-.182.545-.455l.091-.41v-.045c-.045-.091-.045-.273-.136-.41zM188.762 56.585c-.091-.319-.227-.456-.546-.456h-.454c-.273 0-.5.137-.637.41l-9.047 16.07c-.136.182-.136.364-.091.455.046.137.227.182.409.182h.409c.364 0 .591-.045.773-.364l2.819-5.008h7.274l1.091 4.917c.046.455.455.455.682.455h.409c.182 0 .319-.045.364-.136.091-.092.136-.228.091-.41l-3.546-16.115zm.636 9.878h-6.274l4.501-7.92s0-.046.046-.046l1.727 7.966zM207.856 57.54c-.727-.864-1.864-1.32-3.319-1.32h-6.546c-.364 0-.5.137-.546.502l-2.773 15.887c-.046.137-.046.319.045.41.091.136.273.136.41.136h.5c.318 0 .5-.136.545-.5l1.182-6.783h3.637c1.864 0 2.41.682 2.864 2.048l1.546 4.78c.137.364.409.41.728.41h.454c.228 0 .364-.091.409-.182.091-.137.091-.273.046-.41l-1.682-5.19c-.273-.774-.637-1.32-1.091-1.684 2.364-.41 3.909-2.049 4.319-4.507.227-1.411 0-2.686-.728-3.596zm-4.864 6.966h-5.41l1.182-6.783h5.501c1.091 0 1.864.273 2.364.865.5.592.636 1.411.454 2.504-.409 2.14-1.909 3.414-4.091 3.414zM223.405 59.635c-.819-2.55-2.501-3.733-5.365-3.733-3.773 0-6.138 1.593-6.638 4.507-.227 1.229-.045 2.276.546 3.05 1 1.365 2.955 1.775 4.774 2.003 1.682.227 3.091.455 3.727 1.32.319.455.455 1.047.319 1.866-.409 2.322-2.182 3.46-5.365 3.46-2.455 0-3.773-.956-4.364-3.278-.046-.136-.091-.273-.228-.364-.136-.09-.272-.045-.409 0l-.5.182c-.318.137-.455.319-.364.683.637 2.914 2.501 4.234 5.729 4.234 4.137 0 6.365-1.548 6.91-4.69.227-1.274.046-2.32-.545-3.05-.955-1.274-2.819-1.638-4.547-1.866-1.636-.182-3.228-.455-3.955-1.41-.364-.502-.455-1.093-.318-1.913.318-2.048 2.091-3.186 5.001-3.186 2.273 0 3.5.865 4.137 2.822.136.455.454.364.682.273l.363-.182c.455-.227.455-.5.41-.728z"/>
</svg>
