<svg xmlns="http://www.w3.org/2000/svg" width="118" height="118" fill="none" viewBox="0 0 118 118">
    <path fill="#ED1941" fill-rule="evenodd" d="M0 64.839c0-1.836 1.488-3.324 3.324-3.324h34.901c1.836 0 3.324 1.488 3.324 3.324v44.042c0 1.836-1.488 3.324-3.324 3.324H0V64.839zm38.225 0H3.324v44.042h34.901V64.839z" clip-rule="evenodd"/>
    <path fill="#ED1941" fill-rule="evenodd" d="M0 112.183c0-1.836 1.488-3.324 3.324-3.324h111.352c1.836 0 3.324 1.488 3.324 3.324v2.493c0 1.836-1.488 3.324-3.324 3.324H3.324C1.488 118 0 116.512 0 114.676v-2.493zm114.676 0H3.324v2.493h111.352v-2.493z" clip-rule="evenodd"/>
    <path fill="#ED1941" d="M61.008 55.033v13.96h-3.231V57.627h-2.792v-2.593h6.023zM26.166 87.967v2.632h-10.55v-2.094L21 83.42c.572-.546.958-1.01 1.157-1.397.2-.398.3-.79.3-1.176 0-.559-.193-.984-.579-1.276-.372-.306-.924-.46-1.655-.46-.612 0-1.164.12-1.656.36-.491.226-.904.572-1.236 1.037l-2.354-1.516c.546-.811 1.297-1.443 2.254-1.895.957-.465 2.054-.698 3.29-.698 1.038 0 1.942.173 2.713.519.785.332 1.39.811 1.815 1.436.439.612.658 1.336.658 2.174 0 .758-.16 1.469-.478 2.134-.32.664-.938 1.422-1.855 2.273l-3.211 3.032h6.003zM98.708 91.463c1.223.2 2.161.659 2.812 1.377.652.704.977 1.582.977 2.632 0 .811-.212 1.562-.638 2.254-.425.678-1.077 1.223-1.954 1.635-.865.412-1.928.618-3.191.618-.984 0-1.955-.126-2.912-.379-.944-.265-1.749-.638-2.413-1.116l1.256-2.473c.532.398 1.144.711 1.835.937.705.213 1.423.32 2.154.32.81 0 1.45-.154 1.914-.46.466-.319.698-.764.698-1.336 0-1.143-.87-1.715-2.612-1.715h-1.476v-2.134l2.872-3.25h-5.943v-2.594h9.772v2.095l-3.151 3.59z"/>
    <path fill="#ED1941" fill-rule="evenodd" d="M38.226 44.873c0-1.835 1.488-3.324 3.324-3.324h34.9c1.837 0 3.325 1.489 3.325 3.324v67.31h-41.55v-67.31zm38.225 0H41.55v63.986h34.9V44.873z" clip-rule="evenodd"/>
    <path fill="#ED1941" fill-rule="evenodd" d="M78.208 68.163c.459.794.186 1.81-.608 2.27L41.617 91.207c-.795.46-1.812.187-2.27-.608-.46-.795-.187-1.811.608-2.27l35.983-20.775c.794-.459 1.81-.186 2.27.609zM78.208 79.796c.459.795.186 1.812-.608 2.27l-35.983 20.775c-.795.459-1.812.187-2.27-.608-.46-.795-.187-1.811.608-2.27l35.983-20.775c.794-.459 1.81-.187 2.27.608z" clip-rule="evenodd"/>
    <path fill="#ED1941" fill-rule="evenodd" d="M76.45 75.641c0-1.835 1.489-3.324 3.325-3.324h34.901c1.836 0 3.324 1.489 3.324 3.324v36.564H79.775c-1.836 0-3.324-1.488-3.324-3.324v-33.24zm38.226 0H79.775v33.24h34.901v-33.24zM59 0c.565 0 1.087.314 1.371.825l4.689 8.424c.224.403.6.69 1.035.788L75.2 12.1c.552.125.998.548 1.173 1.11.174.562.05 1.179-.326 1.62L69.84 22.1c-.297.347-.44.81-.395 1.273l.938 9.7c.057.589-.189 1.164-.646 1.511-.457.348-1.055.415-1.572.176L59.64 30.83c-.408-.188-.872-.188-1.28 0l-8.525 3.931c-.516.239-1.115.172-1.572-.176-.457-.347-.703-.922-.646-1.51l.938-9.7c.045-.464-.098-.927-.395-1.274l-6.207-7.27c-.376-.441-.5-1.058-.326-1.62s.621-.985 1.173-1.11l9.105-2.063c.435-.099.811-.384 1.035-.787L57.63.825C57.913.315 58.435 0 59 0zm0 4.96l-3.318 5.961c-.672 1.209-1.8 2.066-3.105 2.362l-6.443 1.46 4.392 5.144c.89 1.043 1.321 2.43 1.186 3.821l-.664 6.864 6.033-2.782c1.222-.564 2.615-.564 3.838 0l6.033 2.782-.664-6.864c-.135-1.391.295-2.778 1.186-3.821l4.392-5.144-6.443-1.46c-1.306-.296-2.433-1.153-3.105-2.362L59 4.96z" clip-rule="evenodd"/>
</svg>
