<svg xmlns="http://www.w3.org/2000/svg" width="120" height="120" fill="none" viewBox="0 0 120 120">
    <path fill="#ED1941" fill-rule="evenodd" d="M0 60C0 26.858 26.868 0 60 0c33.132 0 60 26.858 60 60 0 33.142-26.868 60-60 60-33.132 0-60-26.858-60-60zM60 3.247C28.645 3.247 3.236 28.66 3.236 60S28.645 116.753 60 116.753c31.355 0 56.764-25.414 56.764-56.753S91.355 3.247 60 3.247z" clip-rule="evenodd"/>
    <path fill="#ED1941" fill-rule="evenodd" d="M11 60c0-27.067 21.943-49 49-49s49 21.933 49 49-21.943 49-49 49-49-21.933-49-49zm49-45.733c-25.27 0-45.744 20.48-45.744 45.733 0 25.252 20.475 45.733 45.744 45.733 25.27 0 45.744-20.48 45.744-45.733 0-25.252-20.475-45.733-45.744-45.733z" clip-rule="evenodd"/>
    <path fill="#ED1941" fill-rule="evenodd" d="M58.095 12.622L58 1.646l3.27-.024.095 10.976-3.27.024zM61.365 107.933l-.095 10.972-3.27-.029.095-10.971 3.27.028zM82.128 18.211l5.406-9.553 2.844 1.615-5.406 9.553-2.844-1.615zM37.305 102.388l-5.568 9.454-2.818-1.66 5.568-9.454 2.818 1.66zM100.147 35.068l9.458-5.57 1.656 2.82-9.458 5.57-1.656-2.82zM19.24 85.555L9.693 90.96l-1.61-2.847 9.549-5.403 1.61 2.846zM107.827 58h11v3.27h-11V58zM13.285 61.27h-11V58h11v3.27zM102.312 81.855l9.526 5.5-1.635 2.832-9.527-5.5 1.636-2.832zM18.8 37.416l-9.525-5.5 1.635-2.832 9.526 5.5-1.635 2.832zM86.334 99.672l5.5 9.526L89 110.833l-5.5-9.526 2.832-1.635zM36.23 19.431l-5.5-9.526 2.832-1.635 5.5 9.526-2.832 1.636zM60.5 25.007c.551 0 1.06.305 1.335.8l10.402 18.746c.163.294.431.495.735.563l20.198 4.592c.533.12.964.525 1.134 1.061.17.537.052 1.127-.309 1.55l-13.77 16.177c-.214.252-.32.59-.288.934l2.082 21.584c.055.566-.186 1.118-.631 1.451-.445.333-1.028.395-1.53.163L60.948 83.88c-.286-.132-.608-.132-.894 0l-18.912 8.748c-.501.232-1.084.17-1.53-.163-.445-.333-.685-.886-.63-1.451l2.081-21.584c.034-.344-.073-.683-.287-.934L27.005 52.32c-.36-.424-.478-1.013-.308-1.55.169-.536.6-.94 1.133-1.061l20.199-4.592c.303-.069.57-.27.734-.563l10.402-18.746c.274-.495.784-.8 1.335-.8zm0 4.795l-9.066 16.34c-.59 1.063-1.585 1.825-2.745 2.089l-17.645 4.01 12.042 14.147c.783.92 1.159 2.14 1.041 3.359L42.31 88.595l16.488-7.627c1.085-.501 2.321-.501 3.406 0l16.488 7.627-1.818-18.848c-.118-1.22.258-2.439 1.04-3.359h.001l12.042-14.146-17.645-4.011c-1.16-.264-2.154-1.025-2.744-2.09L60.5 29.801z" clip-rule="evenodd"/>
</svg>
