<svg xmlns="http://www.w3.org/2000/svg" width="118" height="109" fill="none" viewBox="0 0 118 109">
    <path fill="#ED1941" fill-rule="evenodd" d="M37 104c0-2.761 2.189-5 4.889-5H76.11c2.7 0 4.889 2.239 4.889 5s-2.189 5-4.889 5H41.89c-2.7 0-4.889-2.239-4.889-5zm4.889-1.667c-.9 0-1.63.747-1.63 1.667s.73 1.667 1.63 1.667H76.11c.9 0 1.63-.747 1.63-1.667s-.73-1.667-1.63-1.667H41.89z" clip-rule="evenodd"/>
    <path fill="#ED1941" fill-rule="evenodd" d="M59.5 101c-3.038 0-5.5-2.612-5.5-5.833v-3.334C54 88.612 56.462 86 59.5 86s5.5 2.612 5.5 5.833v3.334c0 3.221-2.462 5.833-5.5 5.833zm-2.357-5.833c0 1.38 1.055 2.5 2.357 2.5 1.302 0 2.357-1.12 2.357-2.5v-3.334c0-1.38-1.055-2.5-2.357-2.5-1.302 0-2.357 1.12-2.357 2.5v3.334z" clip-rule="evenodd"/>
    <path fill="#ED1941" fill-rule="evenodd" d="M59.5 89c-3.038 0-5.5-2.474-5.5-5.526v-3.948C54 76.474 56.462 74 59.5 74s5.5 2.474 5.5 5.526v3.948C65 86.526 62.538 89 59.5 89zm-2.357-5.526c0 1.308 1.055 2.368 2.357 2.368 1.302 0 2.357-1.06 2.357-2.368v-3.948c0-1.308-1.055-2.368-2.357-2.368-1.302 0-2.357 1.06-2.357 2.368v3.948zM59.08 14.882c.586 0 1.126.319 1.41.832l5.328 9.617-1.359.753 1.36-.753c.235.426.613.7 1.02.793l10.345 2.356c.55.125.995.528 1.173 1.063.178.536.064 1.125-.302 1.555l-7.053 8.3c-.305.358-.464.853-.415 1.363l1.066 11.073c.056.576-.201 1.137-.673 1.471-.472.335-1.086.39-1.61.148l-9.687-4.488c-.387-.18-.82-.18-1.207 0l-9.687 4.488c-.524.243-1.139.187-1.61-.148-.472-.334-.729-.895-.674-1.47l1.067-11.074c.049-.51-.11-1.005-.416-1.364l-7.053-8.3c-.365-.43-.48-1.018-.301-1.553.178-.536.623-.939 1.172-1.064l10.346-2.356c.406-.092.785-.367 1.02-.793l5.328-9.617c.284-.513.825-.832 1.411-.832zm0 4.943l-3.917 7.07c-.662 1.196-1.789 2.07-3.127 2.375l-7.751 1.765 5.33 6.273c.884 1.04 1.3 2.405 1.168 3.762l-.796 8.272 7.132-3.305c1.247-.578 2.673-.578 3.92 0l7.133 3.305-.797-8.272c-.13-1.357.285-2.722 1.169-3.762l5.33-6.273-7.752-1.765c-1.337-.304-2.464-1.18-3.127-2.375l-3.916-7.07z" clip-rule="evenodd"/>
    <path fill="#ED1941" fill-rule="evenodd" d="M23.282 3.223c-.151 7.122.046 25.075 4.852 41.191 2.418 8.11 5.93 15.501 10.928 20.821 4.911 5.228 11.321 8.542 19.938 8.542 8.617 0 15.027-3.314 19.938-8.542l1.189 1.099-1.19-1.099c4.998-5.32 8.511-12.71 10.929-20.82 4.805-16.118 5.004-34.07 4.852-41.192H23.282zm-3.246-.218C20.074 1.325 21.456 0 23.195 0h71.61c1.74 0 3.12 1.326 3.158 3.004.16 7.106.005 25.603-4.98 42.324-2.493 8.36-6.194 16.277-11.667 22.104L80.23 66.43l1.085 1.002C75.84 73.26 68.59 77 59 77c-9.59 0-16.841-3.74-22.316-9.568-5.473-5.827-9.174-13.744-11.667-22.104-4.985-16.72-5.14-35.218-4.98-42.323z" clip-rule="evenodd"/>
    <path fill="#ED1941" fill-rule="evenodd" d="M97.803 10.732c-.003.582-.015 1.413-.049 2.461-.07 2.175-.236 5.287-.618 9.06-.705 6.952-2.147 16.17-5.092 25.898 2.644-.643 5.347-2.091 7.95-4.163 3.381-2.693 6.485-6.36 8.922-10.382 2.438-4.025 4.166-8.337 4.856-12.292.695-3.979.312-7.409-1.211-9.87-2.069-3.342-5.563-3.66-9.111-2.855-1.742.394-3.355 1.04-4.545 1.596-.433.202-.805.39-1.102.547zm-3.06-.954l-.02-.925.62-.44.843 1.375c-.843-1.375-.842-1.376-.842-1.376h.001l.004-.003.01-.006.035-.021.122-.072c.104-.06.253-.146.442-.25.378-.206.918-.489 1.58-.799 1.319-.616 3.159-1.357 5.199-1.82 4.014-.91 9.393-.824 12.568 4.305 2.096 3.387 2.415 7.72 1.646 12.123-.773 4.427-2.674 9.115-5.276 13.409-2.602 4.296-5.948 8.268-9.672 11.234-3.711 2.956-7.906 4.995-12.185 5.22l-2.35.124.731-2.236c3.383-10.345 5.552-20.235 6.3-27.62.375-3.69.132-6.843.2-8.954.034-1.056.045-1.878.047-2.435.002-.278 0-.489 0-.63l-.002-.156-.001-.037v-.01zM20.165 10.732c.003.582.015 1.413.049 2.461.07 2.175.236 5.287.619 9.06.704 6.952 2.146 16.17 5.091 25.898-2.644-.643-5.347-2.091-7.949-4.163-3.382-2.693-6.486-6.36-8.922-10.382-2.438-4.025-4.166-8.337-4.857-12.292-.695-3.979-.312-7.409 1.211-9.87 2.069-3.342 5.563-3.66 9.111-2.855 1.742.394 3.355 1.04 4.546 1.596.433.202.805.39 1.101.547zm2.949-.806l.02-.925-.509-.588-.843 1.375c.843-1.375.842-1.376.842-1.376h-.001l-.004-.003-.01-.006-.035-.021-.122-.072c-.104-.06-.253-.146-.442-.25-.378-.206-.918-.489-1.58-.799-1.319-.616-3.159-1.357-5.198-1.82-4.015-.91-9.394-.824-12.568 4.305-2.097 3.387-2.415 7.72-1.647 12.123.774 4.427 2.675 9.115 5.276 13.409 2.602 4.296 5.948 8.268 9.672 11.234 3.711 2.956 7.906 4.995 12.186 5.22l2.349.124-.731-2.236c-3.382-10.345-5.26-20.204-6.008-27.589-.373-3.689-.535-6.727-.604-8.838-.034-1.055-.044-1.878-.047-2.434l.001-.63.002-.156v-.048z" clip-rule="evenodd"/>
</svg>
